:version 1.10
:name ASF
:units
  mass 1
  length 1
  angle deg
:documentation
  ASF file generated by Kaydara
:root
  axis xyz
  order  tx ty tz rx ry rz
  position 0 0 0
  orientation 0 0 0
:bonedata
  begin
    id 1
    name RightUpLegDummy
    direction -0.718183 -0.695806 0.00816078
    length 4.904
    axis 0 0 0 xyz
  end
  begin
    id 2
    name RightUpLeg
    direction 3.53989e-006 -0.995788 0.0916897
    length 17.4976
    axis -3.49089 -0.000906621 0.000287158 xyz
    dof rx ry rz
  end
  begin
    id 3
    name RightLeg
    direction 0.00371093 -0.995096 -0.0988418
    length 16.5821
    axis 3.68512 0.0193738 -0.131023 xyz
    dof rx ry rz
  end
  begin
    id 4
    name RightFoot
    direction 0.000791514 -0.46099 0.887405
    length 3.77069
    axis 4.84075e-005 -0.120479 -0.188788 xyz
    dof rx ry rz
  end
  begin
    id 5
    name RightToes
    direction 0.00124746 -0.014064 0.9999
    length 3.85082
    axis 0.00048216 0.542163 -0.142577 xyz
    dof rx ry rz
  end
  begin
    id 6
    name SpineDummy
    direction 8.36599e-015 1 5.97571e-016
    length 4.6813
    axis 0 0 0 xyz
  end
  begin
    id 7
    name Spine
    direction -4.63632e-008 0.999988 0.00495137
    length 10.1015
    axis -0.00138897 0.000121419 3.25764e-006 xyz
    dof rx ry rz
  end
  begin
    id 8
    name Spine1
    direction 0 0 0
    length 0
    axis -0.00138896 0.000121452 2.39764e-006 xyz
    dof rx ry rz
  end
  begin
    id 9
    name HEadDummy
    direction -3.91456e-008 0.999999 0.00127422
    length 3.43865
    axis -0.00138896 0.000121452 2.39764e-006 xyz
  end
  begin
    id 10
    name HEad
    direction -0.0222688 0.980941 0.193023
    length 5.12695
    axis -0.00138895 0.000121452 2.39764e-006 xyz
    dof rx ry rz
  end
  begin
    id 11
    name LeftShoulder1Dummy
    direction 0.998891 -0.0402508 -0.0244456
    length 3.5433
    axis -0.00138896 0.000121452 2.39764e-006 xyz
  end
  begin
    id 12
    name LeftShoulder1
    direction 0.99951 -0.000327743 0.0313091
    length 4.05031
    axis -0.00138896 0.000121452 2.39764e-006 xyz
    dof rx ry rz
  end
  begin
    id 13
    name LeftArm
    direction 0.998561 -0.00100054 -0.0536182
    length 10.3537
    axis -23.1894 0.134784 0.96751 xyz
    dof rx ry rz
  end
  begin
    id 14
    name LeftForeArm
    direction 0.998903 0.00866434 0.046012
    length 8.70632
    axis -9.91835 -0.06569 -0.177792 xyz
    dof rx ry rz
  end
  begin
    id 15
    name LeftHand
    direction 0.992938 -0.0411636 0.11126
    length 5.32135
    axis -0.00960227 -0.00340091 0.185174 xyz
    dof rx ry rz
  end
  begin
    id 16
    name RightShoulderDummy
    direction -0.998891 -0.0402509 -0.0244414
    length 3.5433
    axis -0.00138896 0.000121452 2.39764e-006 xyz
  end
  begin
    id 17
    name RightShoulder
    direction -0.99951 -0.000327827 0.0313133
    length 4.05031
    axis 0.215806 0.000203644 -0.00680151 xyz
    dof rx ry rz
  end
  begin
    id 18
    name RightArm
    direction -0.998573 -0.000999583 -0.053403
    length 10.3947
    axis -23.2009 -0.134239 -0.9641 xyz
    dof rx ry rz
  end
  begin
    id 19
    name RightForeArm
    direction -0.998898 0.00868026 0.0461306
    length 8.68355
    axis -9.92322 0.0658061 0.178869 xyz
    dof rx ry rz
  end
  begin
    id 20
    name RightHand
    direction -0.992843 -0.0414603 0.112003
    length 5.28593
    axis -0.00960634 0.00330671 -0.185226 xyz
    dof rx ry rz
  end
  begin
    id 21
    name LeftUpLegDummy
    direction 0.718183 -0.695806 0.00816078
    length 4.904
    axis 0 0 0 xyz
  end
  begin
    id 22
    name LeftUpLeg
    direction -6.8115e-006 -0.995793 0.0916336
    length 17.4976
    axis -3.48766 0.00143441 -0.000523914 xyz
    dof rx ry rz
  end
  begin
    id 23
    name LeftLeg
    direction -0.00601357 -0.995091 -0.0987824
    length 16.5821
    axis 3.68177 -0.00654038 -0.00028478 xyz
    dof rx ry rz
  end
  begin
    id 24
    name LeftFoot
    direction -0.00417578 -0.460984 0.887399
    length 3.77069
    axis 1.87232e-006 4.66002e-005 -8.1837e-006 xyz
    dof rx ry rz
  end
  begin
    id 25
    name LeftToes
    direction 0.00818058 -0.00485161 0.999955
    length 3.85048
    axis 1.06246e-005 4.65855e-005 -8.18502e-006 xyz
    dof rx ry rz
  end
:hierarchy
  begin
    root RightUpLegDummy SpineDummy LeftUpLegDummy
    RightUpLegDummy RightUpLeg
    RightUpLeg RightLeg
    RightLeg RightFoot
    RightFoot RightToes
    SpineDummy Spine
    Spine Spine1
    Spine1 HEadDummy LeftShoulder1Dummy RightShoulderDummy
    HEadDummy HEad
    LeftShoulder1Dummy LeftShoulder1
    LeftShoulder1 LeftArm
    LeftArm LeftForeArm
    LeftForeArm LeftHand
    RightShoulderDummy RightShoulder
    RightShoulder RightArm
    RightArm RightForeArm
    RightForeArm RightHand
    LeftUpLegDummy LeftUpLeg
    LeftUpLeg LeftLeg
    LeftLeg LeftFoot
    LeftFoot LeftToes
  end

:SAMPLES-PER-SECOND 30
:FULLY-SPECIFIED
:DEGREES
1
root  -3.56971 40.8816 -0.249812 -46.1445 -88.6105 45.2209
RightUpLeg  5.92067 -2.22277 -2.55227
RightLeg  -0.920707 -20.4007 -0.208865
RightFoot  -2.41054 -0.314967 3.81278
RightToes  -3.10096e-008 1.75238e-005 3.56266e-009
Spine  -8.96111 -0.938109 -2.0035
Spine1  14.5234 -0.856703 0.448903
HEad  -18.2638 -2.0959 6.03275
LeftShoulder1  2.46172 -4.25338 -25.5847
LeftArm  -40.1462 17.9487 -49.7957
LeftForeArm  129.233 -79.8393 -113.315
LeftHand  -0.404292 -4.80184 4.90003
RightShoulder  2.59272 4.92241 24.6792
RightArm  -23.0081 -27.9629 40.4798
RightForeArm  116.492 78.6805 116.995
RightHand  -0.065086 7.9057 -0.940543
LeftUpLeg  4.70904 0.737107 1.41452
LeftLeg  -1.95814 11.0193 -0.6258
LeftFoot  -1.26636 0.288045 -3.1779
LeftToes  4.7633e-008 1.48299e-008 1.30754e-009
2
root  -3.58876 40.8722 -0.232921 -53.4058 -88.782 52.1623
RightUpLeg  6.20791 -2.28862 -2.59947
RightLeg  -0.762836 -20.0678 -0.265357
RightFoot  -2.53243 -0.321751 3.94905
RightToes  -3.10096e-008 1.75238e-005 3.56266e-009
Spine  -8.92794 -0.946081 -1.85705
Spine1  14.5008 -0.861563 0.383406
HEad  -17.6373 -1.66598 6.08498
LeftShoulder1  2.57643 -4.54254 -25.882
LeftArm  -39.1315 17.2927 -49.7891
LeftForeArm  133.111 -79.5045 -117.292
LeftHand  -0.460293 -4.80853 5.53684
RightShoulder  2.7249 5.27644 24.9593
RightArm  -22.3874 -27.3209 40.6789
RightForeArm  113.906 78.8014 115.227
RightHand  -0.0613581 7.92381 -0.905852
LeftUpLeg  4.9842 0.72352 1.36637
LeftLeg  -1.66499 11.2561 -0.488406
LeftFoot  -1.50576 0.288218 -3.23971
LeftToes  4.7633e-008 1.48299e-008 1.30754e-009
3
root  -3.58126 40.8652 -0.218802 -63.3277 -88.9531 61.8445
RightUpLeg  6.35183 -2.25981 -2.57099
RightLeg  -0.60063 -19.8457 -0.377391
RightFoot  -2.61724 -0.316599 3.91614
RightToes  -3.10096e-008 1.75238e-005 3.56266e-009
Spine  -9.1187 -0.997405 -1.81597
Spine1  15.069 -0.97288 0.533332
HEad  -17.266 -1.63282 5.77591
LeftShoulder1  2.67579 -4.69197 -26.5386
LeftArm  -38.313 15.7788 -49.4037
LeftForeArm  130.691 -79.4675 -116.666
LeftHand  -0.448289 -4.57037 5.51615
RightShoulder  2.68057 5.1758 24.8007
RightArm  -21.6018 -26.0712 41.396
RightForeArm  109.249 79.2209 110.121
RightHand  -0.0478289 8.17382 -0.798689
LeftUpLeg  5.13832 0.811519 1.40437
LeftLeg  -1.38863 11.3871 -0.459293
LeftFoot  -1.69398 0.286096 -3.26627
LeftToes  4.7633e-008 1.48299e-008 1.30754e-009
4
root  -3.57117 40.8633 -0.202119 -73.5189 -89.0305 71.8051
RightUpLeg  6.51107 -2.26358 -2.59851
RightLeg  -0.491382 -19.613 -0.471003
RightFoot  -2.65044 -0.320219 4.02439
RightToes  -3.10096e-008 1.75238e-005 3.56266e-009
Spine  -9.14519 -0.993431 -1.44515
Spine1  15.4603 -0.894533 0.158174
HEad  -17.5509 -1.73494 6.06339
LeftShoulder1  2.75574 -4.86488 -26.8273
LeftArm  -37.5277 13.6772 -48.6696
LeftForeArm  125.097 -79.7458 -112.385
LeftHand  -0.485448 -4.4782 5.986
RightShoulder  2.67507 5.1192 24.9466
RightArm  -21.1492 -25.3324 41.8395
RightForeArm  106.847 79.7092 104.345
RightHand  0.109426 8.71211 0.509291
LeftUpLeg  5.30561 0.94831 1.44217
LeftLeg  -1.18356 11.4421 -0.528772
LeftFoot  -1.83422 0.278384 -3.21929
LeftToes  4.7633e-008 1.48299e-008 1.30754e-009
5
root  -3.54777 40.8601 -0.193163 -76.1313 -88.8743 74.4136
RightUpLeg  6.32352 -2.35277 -2.77135
RightLeg  -0.148895 -19.4956 -0.625632
RightFoot  -2.77425 -0.323178 4.10896
RightToes  -3.10096e-008 1.75238e-005 3.56266e-009
Spine  -9.62105 -1.07614 -1.31765
Spine1  16.2262 -0.867704 -0.18066
HEad  -17.4022 -1.09156 6.36689
LeftShoulder1  2.89823 -5.24255 -27.0462
LeftArm  -37.1346 10.7008 -46.9004
LeftForeArm  119.476 -80.2123 -105.457
LeftHand  -0.673486 -4.62447 8.09079
RightShoulder  2.6844 5.13561 24.9981
RightArm  -20.2972 -24.8123 42.4441
RightForeArm  104.247 79.9009 100.658
RightHand  -0.0144198 8.04075 -0.499279
LeftUpLeg  5.24502 0.878251 1.28452
LeftLeg  -1.14246 11.5063 -0.582494
LeftFoot  -1.82029 0.268744 -3.12355
LeftToes  4.7633e-008 1.48299e-008 1.30754e-009
